<svg xmlns="http://www.w3.org/2000/svg" xmlns:xlink="http://www.w3.org/1999/xlink" version="1.1" x="0px" y="0px" viewBox="0 0 100 100" enable-background="new 0 0 100 100" xml:space="preserve"><path d="M50,92c-1.104,0-2-0.896-2-2s0.896-2,2-2c13.533,0,26.143-7.28,32.908-19c6.767-11.72,6.767-26.28,0-38  C76.143,19.28,63.533,12,50,12c-13.533,0-26.143,7.28-32.909,19c-6.766,11.72-6.766,26.28,0,38  c3.444,5.966,1.502,12.072-5.468,17.193c-0.348,0.256-0.491,0.705-0.355,1.117C11.403,87.724,11.785,88,12.218,88H40  c1.104,0,2,0.896,2,2s-0.896,2-2,2H12.218c-2.166,0-4.075-1.383-4.75-3.44c-0.677-2.06,0.042-4.306,1.787-5.589  c7.922-5.821,5.25-10.45,4.373-11.971c-7.479-12.953-7.479-29.047,0-42S35.043,8,50,8c14.958,0,28.895,8.047,36.373,21  s7.479,29.047,0,42S64.958,92,50,92z"/></svg>