<svg version="1.1" width="40" height="40" xmlns="http://www.w3.org/2000/svg" xmlns:xlink="http://www.w3.org/1999/xlink" x="0px" y="0px"
	 viewBox="0 0 40 40" style="enable-background:new 0 0 40 40;" xml:space="preserve">
<style type="text/css">
	.st0{opacity:0.5;}
	.st1{fill:#FFFFFF;}
	.st2{fill-rule:evenodd;clip-rule:evenodd;}
</style>
<g class="st0">
	<path class="st1" d="M12,20h4v4c0,0.6,0.4,1,1,1h2c0.6,0,1-0.4,1-1v-4h4c0.6,0,1-0.4,1-1v-2c0-0.6-0.4-1-1-1h-4v-4c0-0.6-0.4-1-1-1
		h-2c-0.6,0-1,0.4-1,1v4h-4c-0.6,0-1,0.4-1,1v2C11,19.6,11.4,20,12,20z"/>
	<path class="st1" d="M36.7,33.9l-6.8-6.8c2-2.6,3.1-5.8,3.1-9.1c0-8.3-6.7-15-15-15C9.7,3,3,9.7,3,18c0,8.3,6.7,15,15,15
		c3.3,0,6.5-1.1,9.1-3.1l6.8,6.8c0.2,0.2,0.5,0.3,0.7,0.3s0.5-0.1,0.7-0.3l1.4-1.4C37.1,34.9,37.1,34.3,36.7,33.9z M18,7
		c6.1,0,11,4.9,11,11s-4.9,11-11,11S7,24.1,7,18S11.9,7,18,7z"/>
</g>
<g>
	<path class="st2" d="M28.6,27.2c2.1-2.5,3.4-5.7,3.4-9.2c0-7.7-6.3-14-14-14S4,10.3,4,18s6.3,14,14,14c3.5,0,6.7-1.3,9.2-3.4
		l7.4,7.4l1.4-1.4L28.6,27.2z M18,30c-6.6,0-12-5.4-12-12c0-6.6,5.4-12,12-12s12,5.4,12,12C30,24.6,24.6,30,18,30z M19,12h-2v5h-5v2
		h5v5h2v-5h5v-2h-5V12z"/>
</g>
</svg>
