<svg version="1.1"  xmlns="http://www.w3.org/2000/svg" xmlns:xlink="http://www.w3.org/1999/xlink" x="0px" y="0px"
	 viewBox="0 0 22 22" style="enable-background:new 0 0 22 22;" xml:space="preserve">
<path d="M0,21v-2c0,0,0.1-1.2,1.6-1.6c0,0,2.4-0.9,4.2-1.7c1-0.4,1.2-0.7,2.1-1.1c0,0,0.1-0.5,0.1-0.8h0.8c0,0,0.2,0.1,0-1.1
	c0,0-0.9-0.2-1-2.1c0,0-0.7,0.2-0.7-0.9c0-0.8-0.6-1.5,0.2-2L6.9,6.4c0,0-0.9-4.8,1.6-4.1c-1-1.3,5.9-2.6,6.4,1.5c0,0,0.3,2.2,0,3.7
	c0,0,1-0.1,0.3,1.9c0,0-0.4,1.4-0.9,1.1c0,0,0.1,1.8-0.8,2.1l0.1,1l0.9,0.1c0,0-0.1,0.8,0,0.9c0,0,1,0.7,2.2,1
	C19,16.3,22,17.4,22,19c0,0.5,0,2,0,2H0z"/>
</svg>
