<svg xmlns="http://www.w3.org/2000/svg" xmlns:xlink="http://www.w3.org/1999/xlink" x="0px" y="0px"
	 viewBox="0 0 16 16" style="enable-background:new 0 0 16 16;" xml:space="preserve" fill="#ffffff">
<g>
	<path d="M15,4c0.6,0,1-0.4,1-1s-0.4-1-1-1H7.8C7.9,2.3,8,2.6,8,3S7.9,3.7,7.8,4H15z"/>
	<path d="M1,4h2.3c0.3,0.6,1,1,1.7,1c1.1,0,2-0.9,2-2S6.1,1,5,1C4.3,1,3.6,1.4,3.3,2H1C0.4,2,0,2.4,0,3S0.4,4,1,4z"/>
	<path d="M15,7h-2.2C12.9,7.3,13,7.6,13,8s-0.1,0.7-0.2,1H15c0.6,0,1-0.4,1-1S15.6,7,15,7z"/>
	<path d="M1,9h7.3c0.3,0.6,1,1,1.7,1c1.1,0,2-0.9,2-2s-0.9-2-2-2C9.3,6,8.6,6.4,8.3,7H1C0.4,7,0,7.4,0,8S0.4,9,1,9z"/>
	<path d="M15,12H7.8C7.9,12.3,8,12.6,8,13s-0.1,0.7-0.2,1H15c0.6,0,1-0.4,1-1S15.6,12,15,12z"/>
	<path d="M5,11c-0.7,0-1.4,0.4-1.7,1H1c-0.6,0-1,0.4-1,1s0.4,1,1,1h2.3c0.3,0.6,1,1,1.7,1c1.1,0,2-0.9,2-2S6.1,11,5,11z
		"/>
</g>
</svg>
