<svg xmlns="http://www.w3.org/2000/svg" xmlns:xlink="http://www.w3.org/1999/xlink" x="0px" y="0px"
	 viewBox="0 0 16 16" style="enable-background:new 0 0 16 16;" xml:space="preserve" fill="#ffffff">
<g>
	<path d="M6.3,10.3L5,11.6V2c0-0.6-0.4-1-1-1S3,1.4,3,2v9.6l-1.3-1.3c-0.4-0.4-1-0.4-1.4,0s-0.4,1,0,1.4l3,3
		c0.1,0.1,0.2,0.2,0.3,0.2C3.7,15,3.9,15,4,15s0.3,0,0.4-0.1s0.2-0.1,0.3-0.2l3-3c0.4-0.4,0.4-1,0-1.4S6.7,9.9,6.3,10.3z"/>
	<path d="M15.7,4.3l-3-3c-0.1-0.1-0.2-0.2-0.3-0.2c-0.2-0.1-0.5-0.1-0.8,0c-0.1,0.1-0.2,0.1-0.3,0.2l-3,3
		c-0.4,0.4-0.4,1,0,1.4C8.5,5.9,8.7,6,9,6s0.5-0.1,0.7-0.3L11,4.4V14c0,0.6,0.4,1,1,1s1-0.4,1-1V4.4l1.3,1.3C14.5,5.9,14.7,6,15,6
		s0.5-0.1,0.7-0.3C16.1,5.3,16.1,4.7,15.7,4.3z"/>
</g>
</svg>
