<svg version="1.1" xmlns="http://www.w3.org/2000/svg" xmlns:xlink="http://www.w3.org/1999/xlink" x="0px" y="0px"
	 viewBox="0 0 22 22" style="enable-background:new 0 0 22 22;" xml:space="preserve">
<path d="M8.622,19.067c0.644,0.635,1.49,0.943,2.333,0.932c0.844,0.012,1.69-0.297,2.334-0.932l6.928-6.807
	C21.406,11.087,22,9.548,22,8.01c0-1.538-0.594-3.077-1.783-4.251C19.04,2.597,17.499,2.01,15.956,2
	c-1.571-0.01-3.145,0.576-4.343,1.76l-0.616,0.599L10.387,3.76C9.211,2.598,7.672,2.011,6.129,2C4.557,1.989,2.982,2.575,1.783,3.76
	C0.594,4.933,0,6.472,0,8.01c0,1.538,0.594,3.076,1.783,4.249L8.622,19.067z"/>
</svg>
