<svg version="1.1"  xmlns="http://www.w3.org/2000/svg" xmlns:xlink="http://www.w3.org/1999/xlink" x="0px" y="0px"
	 viewBox="49 -0.5 52 52" style="enable-background:new 49 -0.5 52 52;" xml:space="preserve">
<g>
	<path d="M73,43.2c4.9,0,9.4-1.8,12.9-4.7l9,9c0.2,0.2,0.6,0.4,0.9,0.4c0.3,0,0.6-0.1,0.9-0.4c0.5-0.5,0.5-1.3,0-1.8l-9-9
		c3.3-3.6,5.3-8.3,5.3-13.5c0-11-9-20-20-20s-20,9-20,20S61.9,43.2,73,43.2z M73,5.7c9.6,0,17.5,7.8,17.5,17.5S82.6,40.7,73,40.7
		s-17.5-7.8-17.5-17.5S63.3,5.7,73,5.7z"/>
	<path d="M64.2,24.4h7.5v7.5c0,0.7,0.6,1.2,1.2,1.2c0.7,0,1.2-0.6,1.2-1.2v-7.5h7.5c0.7,0,1.2-0.6,1.2-1.2c0-0.7-0.6-1.2-1.2-1.2
		h-7.5v-7.5c0-0.7-0.6-1.2-1.2-1.2c-0.7,0-1.2,0.6-1.2,1.2v7.5h-7.5c-0.7,0-1.2,0.6-1.2,1.2C63,23.9,63.5,24.4,64.2,24.4z"/>
</g>
</svg>
